/* XPM */
static const char * chase_xpm[] = {
"16 16 4 1",
" 	c None",
".	c #FFFFFF",
"+	c #404040",
"@	c #EFEF00",
"             ...",
"             ...",
"        +++++...",
"           ++   ",
"          + +   ",
"         +  +   ",
"        +   +   ",
"       +        ",
"   @@ +         ",
" @@@@@@         ",
" @@@@@@         ",
"@@@@@@@@        ",
"@@@@@@@@        ",
" @@@@@@         ",
" @@@@@@         ",
"   @@           "};
