/* XPM */
static const char * fedit2_xpm[] = {
"32 32 4 1",
" 	c None",
".	c #009800",
"+	c #FFFFFF",
"@	c #000000",
"................................",
"................................",
"................................",
"................................",
"................................",
".++++++++++++++++++++++++++++++.",
".+..............+.............+.",
".+..............+.............+.",
".+..............+.............+.",
".+..............+.............+.",
".+++++..........+.........+++++.",
".+...+..........+.........+...+.",
".+...+..........+.........+...+.",
".+...+.........+++........+...+.",
"@@...+........+.+.+.......+...@@",
"@@...+.......+..+..+......+...@@",
"@@...+.......+..+..+......+...@@",
"@@...+........+.+.+.......+...@@",
".+...+.........+++........+...+.",
".+...+..........+.........+...+.",
".+...+..........+.........+...+.",
".+++++..........+.........+++++.",
".+..............+.............+.",
".+..............+.............+.",
".+..............+.............+.",
".+..............+.............+.",
".++++++++++++++++++++++++++++++.",
"................................",
"................................",
"................................",
"................................",
"................................"};
