/* XPM */
static const char * insert_xpm[] = {
"16 15 5 1",
" 	c None",
".	c #000000",
"+	c #808080",
"@	c #FF0000",
"#	c #FFFFFF",
"                ",
"            ... ",
"           .+++.",
"           .+++.",
"           .+++.",
" ...     @  ... ",
".###.    @@     ",
".###. @@@@@@    ",
".###.    @@     ",
" ...     @  ... ",
"           .+++.",
"           .+++.",
"           .+++.",
"            ... ",
"                "};
