/* XPM */
static const char * record_xpm[] = {
"16 16 12 1",
" 	c None",
".	c #000000",
"+	c #0C0000",
"@	c #0F0000",
"#	c #140000",
"$	c #100000",
"%	c #C80000",
"&	c #930000",
"*	c #0D0000",
"=	c #270000",
"-	c #200000",
";	c #9A0000",
"                ",
"                ",
"     .+@#$.     ",
"    .%%%%%%.    ",
"   .%%%%%%%%$   ",
"  #%%%%%%%%%&.  ",
"  *%%%%%%%%%%.  ",
"  $%%%%%%%%%%#  ",
"  .%%%%%%%%%%@  ",
"  .%%%%%%%%%%=  ",
"  .%%%%%%%%%%-  ",
"   .%%%%%%%;$   ",
"    .%%%%%%$    ",
"     ...#..     ",
"                ",
"                "};
