/* XPM */
static const char * replace_xpm[] = {
"16 15 5 1",
" 	c None",
".	c #000000",
"+	c #999999",
"@	c #000080",
"#	c #FFFFFF",
"                ",
" ......         ",
" .++++..        ",
" .++++.+.       ",
" .+..+.@@@@@@   ",
" .+++++@####@@  ",
" .+....@####@#@ ",
" .+++++@#..#@@@@",
" .+....@#######@",
" .+++++@#.....#@",
" ......@#######@",
"       @#.....#@",
"       @#######@",
"       @@@@@@@@@",
"                "};
