/* XPM */
static const char * reverse_xpm[] = {
"16 15 5 1",
" 	c None",
".	c #000000",
"+	c #FFFFFF",
"@	c #FF0000",
"#	c #808080",
"      ...       ",
"     .+++.      ",
"     .+++.      ",
"     .+++.      ",
"      ...       ",
"       @        ",
"       @        ",
"       @        ",
"      @@@       ",
"       @        ",
"      ...       ",
"     .###.      ",
"     .###.      ",
"     .###.      ",
"      ...       "};
